<svg width="24" height="24" viewBox="0 0 24 24" fill="none" xmlns="http://www.w3.org/2000/svg">
<path fill-rule="evenodd" clip-rule="evenodd" d="M12 1.25029C10.172 1.25029 8.661 1.41129 7.498 1.60729L7.364 1.63029C6.354 1.79929 5.514 1.94029 4.857 2.74829C4.437 3.26729 4.3 3.82829 4.269 4.45329L3.777 4.61729C3.314 4.77129 2.907 4.90729 2.586 5.05729C2.238 5.21929 1.919 5.42728 1.675 5.76628C1.431 6.10528 1.334 6.47329 1.29 6.85429C1.25 7.20729 1.25 7.63429 1.25 8.12329V8.26828C1.25 8.67028 1.25 9.02528 1.28 9.32228C1.312 9.64328 1.383 9.95629 1.56 10.2583C1.739 10.5613 1.977 10.7753 2.243 10.9593C2.488 11.1293 2.798 11.3023 3.15 11.4973L5.79 12.9643C6.33 14.0253 7.071 14.9713 8.09 15.6543C8.977 16.2503 10.042 16.6243 11.303 16.7233C11.2691 16.8118 11.2511 16.9055 11.25 17.0003V18.7503H9.82C9.41542 18.7503 9.02334 18.8905 8.71047 19.147C8.39761 19.4035 8.1833 19.7605 8.104 20.1573L7.885 21.2503H6C5.80109 21.2503 5.61032 21.3293 5.46967 21.47C5.32902 21.6106 5.25 21.8014 5.25 22.0003C5.25 22.1992 5.32902 22.39 5.46967 22.5306C5.61032 22.6713 5.80109 22.7503 6 22.7503H18C18.1989 22.7503 18.3897 22.6713 18.5303 22.5306C18.671 22.39 18.75 22.1992 18.75 22.0003C18.75 21.8014 18.671 21.6106 18.5303 21.47C18.3897 21.3293 18.1989 21.2503 18 21.2503H16.115L15.896 20.1573C15.8167 19.7605 15.6024 19.4035 15.2895 19.147C14.9767 18.8905 14.5846 18.7503 14.18 18.7503H12.75V17.0003C12.7489 16.9055 12.7309 16.8118 12.697 16.7233C13.958 16.6233 15.023 16.2503 15.91 15.6553C16.93 14.9713 17.67 14.0253 18.21 12.9643L20.85 11.4973C21.202 11.3023 21.512 11.1293 21.757 10.9593C22.022 10.7753 22.261 10.5613 22.439 10.2593C22.617 9.95628 22.689 9.64328 22.72 9.32228C22.75 9.02528 22.75 8.67028 22.75 8.26828V8.12329C22.75 7.63529 22.75 7.20729 22.71 6.85429C22.666 6.47329 22.57 6.10428 22.325 5.76628C22.081 5.42728 21.762 5.21929 21.415 5.05629C21.092 4.90629 20.686 4.77129 20.223 4.61729L19.731 4.45329C19.701 3.82729 19.564 3.26729 19.143 2.74829C18.487 1.93929 17.647 1.79829 16.637 1.63029L16.502 1.60729C15.0139 1.36277 13.508 1.24335 12 1.25029ZM14.585 21.2503L14.425 20.4513C14.4137 20.3946 14.3831 20.3437 14.3384 20.307C14.2938 20.2704 14.2378 20.2503 14.18 20.2503H9.82C9.76223 20.2503 9.70625 20.2704 9.66158 20.307C9.61692 20.3437 9.58632 20.3946 9.575 20.4513L9.415 21.2503H14.585ZM4.288 6.02829L4.302 6.02328C4.374 7.54328 4.545 9.22329 4.973 10.7933L3.907 10.2023C3.518 9.98528 3.274 9.84929 3.098 9.72729C2.936 9.61429 2.883 9.54728 2.854 9.49728C2.824 9.44728 2.792 9.36929 2.772 9.17329C2.75133 8.86107 2.74399 8.54812 2.75 8.23528V8.16228C2.75 7.62328 2.751 7.28229 2.78 7.02429C2.808 6.78629 2.852 6.69729 2.892 6.64329C2.931 6.58829 3.001 6.51828 3.218 6.41728C3.454 6.30728 3.778 6.19929 4.288 6.02829ZM19.698 6.02228C19.627 7.54228 19.455 9.22228 19.028 10.7923L20.093 10.2013C20.482 9.98429 20.726 9.84828 20.902 9.72628C21.064 9.61328 21.117 9.54629 21.146 9.49629C21.176 9.44629 21.208 9.36829 21.228 9.17229C21.249 8.95829 21.25 8.67929 21.25 8.23429V8.16129C21.25 7.62229 21.249 7.28128 21.22 7.02328C21.192 6.78528 21.148 6.69629 21.108 6.64229C21.069 6.58729 20.999 6.51729 20.782 6.41629C20.546 6.30629 20.222 6.19729 19.712 6.02629L19.698 6.02228ZM7.748 3.08629C9.15352 2.8562 10.5758 2.74381 12 2.75029C13.74 2.75029 15.167 2.90329 16.252 3.08629C17.459 3.29029 17.712 3.36629 17.979 3.69429C18.241 4.01629 18.266 4.32229 18.212 5.67729C18.122 7.93529 17.824 10.3733 16.902 12.2273C16.446 13.1413 15.85 13.8893 15.075 14.4093C14.304 14.9263 13.309 15.2503 12 15.2503C10.691 15.2503 9.697 14.9263 8.926 14.4093C8.15 13.8893 7.554 13.1413 7.099 12.2263C6.176 10.3733 5.879 7.93629 5.789 5.67629C5.735 4.32229 5.759 4.01629 6.022 3.69429C6.288 3.36629 6.541 3.29029 7.748 3.08629Z" fill="#B19EFF"/>
</svg>
