<svg width="24" height="24" viewBox="0 0 24 24" fill="none" xmlns="http://www.w3.org/2000/svg">
<path d="M19.0802 6.5998C18.3602 5.3998 17.0402 4.7998 15.6002 4.7998H8.40021C6.96021 4.7998 5.64021 5.3998 4.92021 6.5998C2.16021 10.7998 1.56021 17.1598 3.48021 18.4798C5.40021 19.7998 9.72021 14.0398 12.0002 14.0398C14.2802 14.0398 18.4802 19.7998 20.5202 18.4798C22.4402 17.1598 21.8402 10.7998 19.0802 6.5998ZM9.60021 10.7998H8.40021V11.9998H7.20021V10.7998H6.00021V9.5998H7.20021V8.3998H8.40021V9.5998H9.60021V10.7998ZM16.0802 11.3998C16.0802 11.9998 15.6002 12.4798 15.0002 12.4798C14.4002 12.4798 13.9202 11.9998 13.9202 11.3998C13.9202 10.7998 14.4002 10.3198 15.0002 10.3198C15.6002 10.3198 16.0802 10.7998 16.0802 11.3998ZM18.3602 8.9998C18.3602 9.5998 17.8802 10.0798 17.2802 10.0798C16.6802 10.0798 16.2002 9.5998 16.2002 8.9998C16.2002 8.3998 16.6802 7.9198 17.2802 7.9198C17.8802 7.9198 18.3602 8.3998 18.3602 8.9998Z" fill="#B19EFF"/>
</svg>
