<svg width="336" height="308" viewBox="0 0 336 308" fill="none" xmlns="http://www.w3.org/2000/svg">
<g clip-path="url(#clip0_84_1743)">
<rect x="72" y="91" width="10" height="35" rx="5" fill="white"/>
<rect x="90" y="106" width="10" height="46" rx="5" fill="white"/>
<rect x="134" y="96" width="10" height="17" rx="5" fill="white"/>
<rect x="111" y="69" width="11" height="57" rx="5.5" fill="white"/>
<rect x="90" y="76" width="10" height="25" rx="5" fill="white"/>
<path d="M163.5 46.0973C132.499 48.0973 134.5 84.5973 134.5 84.5973C134.5 84.5973 136.502 88.4825 139 88.5973C141.653 88.7192 144.5 84.5973 144.5 84.5973C144.5 84.5973 144.045 79.9906 144.5 77.0973C145.342 71.7483 146.901 68.643 150.5 64.5973C153.096 61.6794 154.942 60.2069 158.5 58.5973C162.478 56.7977 165.156 56.1609 169.5 56.5973C173.434 56.9924 179 60.0973 179 60.0973C179 60.0973 171.632 67.5134 169.5 73.5973C167.365 79.6895 168.5 90.0973 168.5 90.0973L154 103.097C154 103.097 152.5 104.511 152.5 105.097C152.5 105.878 154 107.597 154 107.597L156.5 110.597L160 113.597V115.597C160 115.597 158.962 116.187 158.5 116.597C157.634 117.367 157.968 118.034 158.482 119.061L158.5 119.097C158.87 119.838 159.63 119.856 160 120.597C160.524 121.645 160.685 122.646 160 123.597C159.589 124.169 158.915 124.028 158.5 124.597C158.136 125.096 158.047 125.482 158 126.097C157.938 126.9 158.106 127.395 158.5 128.097C158.905 128.82 159.63 128.856 160 129.597C160.524 130.645 160.165 131.437 160 132.597C159.595 135.452 155.522 136.385 156.5 139.097C156.924 140.273 158.46 142.188 160 144C162.416 146.843 164.127 144.407 167.5 146C172.267 148.252 174.061 146.253 179 148.097C183.747 149.87 185.798 152.497 188.892 156.459L189 156.597C192.93 161.629 195.5 171.597 195.5 171.597C195.5 171.597 183 181.097 167.5 181.097C152 181.097 146.5 175.597 146.5 175.597C146.5 175.597 138 171.597 130.5 161.097C123 150.597 122 133.097 122 133.097C122 133.097 121 128.597 116 129.597C111 130.597 111 134.597 111 134.597C111 134.597 111 153.097 124 171.597C137 190.097 158.5 191.097 158.5 191.097V197.597L159.5 199.097L160.5 200.097L162.5 201.097V211.097C162.5 211.097 150.126 210.301 143 213.097C139.009 214.663 133.5 218.597 133.5 218.597V227.097C133.5 227.097 153.982 233.561 167.5 233.597C181.21 233.634 202 227.097 202 227.097V217.097C202 217.097 194.642 213.304 189 212.097C183.272 210.872 173.5 211.097 173.5 211.097V200.097H175.5L176.5 199.097L178 197.597V190.597C178 190.597 189 189.597 205.5 177.597C222 165.597 224.5 134.597 224.5 134.597H202V73.5973C202 73.5973 194.5 44.0973 163.5 46.0973Z" fill="white"/>
<path d="M142 161C131 148.5 133.5 122 133.5 122C133.5 122 134 117.5 138.5 117.5C143.5 117.5 144.5 122 144.5 122C144.5 122 141.767 146.307 150.5 155.5C158.114 163.514 176.248 162 177.5 163C178.753 164 183 170.5 183 170.5C183 170.5 175.976 172.334 171 172.5C158.824 172.907 152.197 172.588 142 161Z" fill="white"/>
<path d="M108.9 261L104.336 241.876H108.396L111.672 257.276H112.82L116.04 241.876H120.1L115.62 261H108.9ZM127.174 261.308C125.587 261.308 124.309 261.047 123.338 260.524C122.386 260.001 121.695 259.199 121.266 258.116C120.837 257.015 120.622 255.596 120.622 253.86C120.622 252.18 120.846 250.817 121.294 249.772C121.742 248.708 122.451 247.924 123.422 247.42C124.393 246.897 125.643 246.636 127.174 246.636C128.723 246.636 129.974 246.897 130.926 247.42C131.897 247.924 132.606 248.708 133.054 249.772C133.521 250.817 133.754 252.18 133.754 253.86C133.754 255.596 133.539 257.015 133.11 258.116C132.681 259.199 131.981 260.001 131.01 260.524C130.058 261.047 128.779 261.308 127.174 261.308ZM127.174 258.228C127.958 258.228 128.546 258.088 128.938 257.808C129.33 257.509 129.591 257.043 129.722 256.408C129.871 255.755 129.946 254.905 129.946 253.86C129.946 252.833 129.862 252.021 129.694 251.424C129.526 250.808 129.246 250.369 128.854 250.108C128.462 249.847 127.902 249.716 127.174 249.716C126.465 249.716 125.905 249.847 125.494 250.108C125.102 250.369 124.822 250.808 124.654 251.424C124.486 252.021 124.402 252.833 124.402 253.86C124.402 254.905 124.467 255.755 124.598 256.408C124.747 257.043 125.018 257.509 125.41 257.808C125.802 258.088 126.39 258.228 127.174 258.228ZM136.302 261V246.944H140.026V261H136.302ZM136.302 244.704V241.512H140.054V244.704H136.302ZM148.878 261.308C147.272 261.308 146.012 261.065 145.098 260.58C144.202 260.076 143.567 259.273 143.194 258.172C142.839 257.071 142.662 255.624 142.662 253.832C142.662 252.059 142.867 250.649 143.278 249.604C143.688 248.54 144.351 247.784 145.266 247.336C146.199 246.869 147.412 246.636 148.906 246.636C149.298 246.636 149.755 246.664 150.278 246.72C150.8 246.776 151.323 246.851 151.846 246.944C152.387 247.019 152.844 247.093 153.218 247.168L153.078 250.164C152.723 250.127 152.322 250.099 151.874 250.08C151.426 250.043 150.987 250.015 150.558 249.996C150.147 249.959 149.811 249.94 149.55 249.94C148.747 249.94 148.112 250.071 147.646 250.332C147.198 250.575 146.88 250.985 146.694 251.564C146.526 252.124 146.442 252.88 146.442 253.832C146.442 254.859 146.526 255.68 146.694 256.296C146.862 256.912 147.16 257.351 147.59 257.612C148.038 257.873 148.691 258.004 149.55 258.004C149.811 258.004 150.156 257.995 150.586 257.976C151.015 257.939 151.454 257.901 151.902 257.864C152.368 257.827 152.779 257.799 153.134 257.78L153.246 260.776C152.872 260.851 152.424 260.925 151.902 261C151.379 261.093 150.847 261.168 150.306 261.224C149.783 261.28 149.307 261.308 148.878 261.308ZM161.208 261.308C159.659 261.308 158.427 261.047 157.512 260.524C156.616 260.001 155.972 259.208 155.58 258.144C155.188 257.08 154.992 255.745 154.992 254.14C154.992 252.404 155.235 250.985 155.72 249.884C156.224 248.783 156.952 247.971 157.904 247.448C158.856 246.907 160.032 246.636 161.432 246.636C163.504 246.636 165.063 247.159 166.108 248.204C167.172 249.249 167.704 250.901 167.704 253.16L167.536 255.232H158.744C158.763 256.277 158.978 257.061 159.388 257.584C159.799 258.107 160.508 258.368 161.516 258.368C162.095 258.368 162.73 258.359 163.42 258.34C164.111 258.303 164.792 258.265 165.464 258.228C166.155 258.191 166.743 258.153 167.228 258.116L167.312 260.72C166.846 260.795 166.258 260.879 165.548 260.972C164.839 261.065 164.102 261.14 163.336 261.196C162.59 261.271 161.88 261.308 161.208 261.308ZM158.744 252.852H163.98C163.98 251.583 163.775 250.696 163.364 250.192C162.972 249.688 162.328 249.436 161.432 249.436C160.835 249.436 160.34 249.548 159.948 249.772C159.556 249.996 159.258 250.36 159.052 250.864C158.847 251.368 158.744 252.031 158.744 252.852ZM183.39 261.308C181.897 261.308 180.665 261.121 179.694 260.748C178.742 260.356 177.986 259.759 177.426 258.956C176.866 258.153 176.474 257.136 176.25 255.904C176.045 254.653 175.942 253.169 175.942 251.452C175.942 249.716 176.045 248.232 176.25 247C176.474 245.749 176.866 244.723 177.426 243.92C177.986 243.117 178.752 242.52 179.722 242.128C180.712 241.736 181.972 241.54 183.502 241.54C184.118 241.54 184.762 241.577 185.434 241.652C186.106 241.727 186.75 241.82 187.366 241.932C188.001 242.025 188.542 242.128 188.99 242.24L188.878 245.32C188.505 245.245 188.038 245.18 187.478 245.124C186.918 245.049 186.349 244.993 185.77 244.956C185.192 244.919 184.65 244.9 184.146 244.9C183.25 244.9 182.522 245.012 181.962 245.236C181.402 245.46 180.964 245.833 180.646 246.356C180.348 246.879 180.142 247.56 180.03 248.4C179.918 249.221 179.862 250.239 179.862 251.452C179.862 252.647 179.918 253.664 180.03 254.504C180.142 255.325 180.348 255.997 180.646 256.52C180.945 257.024 181.374 257.397 181.934 257.64C182.513 257.864 183.26 257.976 184.174 257.976C184.921 257.976 185.742 257.939 186.638 257.864C187.553 257.771 188.309 257.687 188.906 257.612L188.99 260.664C188.542 260.757 188.01 260.86 187.394 260.972C186.778 261.065 186.125 261.14 185.434 261.196C184.744 261.271 184.062 261.308 183.39 261.308ZM191.399 261V241.204H195.123V247.448C195.441 247.336 195.814 247.224 196.243 247.112C196.691 246.981 197.149 246.869 197.615 246.776C198.101 246.683 198.539 246.636 198.931 246.636C199.921 246.636 200.733 246.767 201.367 247.028C202.021 247.271 202.534 247.672 202.907 248.232C203.281 248.773 203.542 249.492 203.691 250.388C203.859 251.284 203.943 252.367 203.943 253.636V261H200.191V253.916C200.191 252.945 200.135 252.171 200.023 251.592C199.911 250.995 199.697 250.565 199.379 250.304C199.081 250.043 198.614 249.912 197.979 249.912C197.643 249.912 197.298 249.94 196.943 249.996C196.589 250.052 196.243 250.127 195.907 250.22C195.59 250.313 195.329 250.397 195.123 250.472V261H191.399ZM210.544 261.308C209.088 261.308 207.987 260.944 207.24 260.216C206.512 259.469 206.148 258.349 206.148 256.856C206.148 255.811 206.335 254.999 206.708 254.42C207.081 253.823 207.632 253.393 208.36 253.132C209.107 252.852 210.012 252.684 211.076 252.628L214.492 252.32V251.48C214.492 250.808 214.324 250.341 213.988 250.08C213.652 249.8 213.157 249.66 212.504 249.66C211.981 249.66 211.375 249.679 210.684 249.716C210.012 249.753 209.34 249.8 208.668 249.856C208.015 249.912 207.445 249.968 206.96 250.024L206.848 247.392C207.333 247.28 207.912 247.168 208.584 247.056C209.275 246.925 209.993 246.823 210.74 246.748C211.487 246.673 212.177 246.636 212.812 246.636C214.007 246.636 215.005 246.785 215.808 247.084C216.611 247.383 217.217 247.877 217.628 248.568C218.039 249.24 218.244 250.155 218.244 251.312V257.724C218.281 257.985 218.421 258.191 218.664 258.34C218.907 258.471 219.187 258.564 219.504 258.62L219.42 261.196C219.121 261.196 218.823 261.196 218.524 261.196C218.244 261.215 217.973 261.215 217.712 261.196C217.451 261.196 217.217 261.177 217.012 261.14C216.583 261.084 216.209 260.972 215.892 260.804C215.593 260.636 215.351 260.459 215.164 260.272C214.865 260.403 214.464 260.552 213.96 260.72C213.456 260.888 212.905 261.028 212.308 261.14C211.729 261.252 211.141 261.308 210.544 261.308ZM211.44 258.536C211.795 258.536 212.168 258.499 212.56 258.424C212.952 258.349 213.316 258.265 213.652 258.172C214.007 258.06 214.287 257.957 214.492 257.864V254.644L211.636 254.896C211.02 254.952 210.572 255.139 210.292 255.456C210.031 255.755 209.9 256.184 209.9 256.744C209.9 257.304 210.021 257.743 210.264 258.06C210.525 258.377 210.917 258.536 211.44 258.536ZM226.296 261.336C225.269 261.336 224.439 261.187 223.804 260.888C223.169 260.589 222.712 260.076 222.432 259.348C222.171 258.601 222.04 257.565 222.04 256.24V250.052H220.388V246.944H222.04V243.22H225.764V246.944H229.348V250.052H225.764V255.26C225.764 255.988 225.792 256.557 225.848 256.968C225.923 257.379 226.072 257.668 226.296 257.836C226.52 258.004 226.865 258.088 227.332 258.088C227.463 258.088 227.659 258.079 227.92 258.06C228.181 258.041 228.443 258.023 228.704 258.004C228.965 257.985 229.18 257.967 229.348 257.948L229.46 260.944C229.18 261 228.835 261.056 228.424 261.112C228.032 261.168 227.64 261.215 227.248 261.252C226.875 261.308 226.557 261.336 226.296 261.336Z" fill="white"/>
<path d="M104.032 282C103.239 282 102.585 281.874 102.072 281.622C101.559 281.37 101.176 280.987 100.924 280.474C100.681 279.961 100.56 279.312 100.56 278.528C100.56 277.744 100.681 277.091 100.924 276.568C101.176 276.036 101.559 275.639 102.072 275.378C102.585 275.107 103.239 274.972 104.032 274.972H107.196V281.118H105.32V276.19L105.782 276.596H104.032C103.649 276.596 103.341 276.643 103.108 276.736C102.875 276.82 102.702 277.002 102.59 277.282C102.487 277.553 102.436 277.968 102.436 278.528C102.436 279.06 102.483 279.461 102.576 279.732C102.679 279.993 102.847 280.166 103.08 280.25C103.313 280.334 103.631 280.376 104.032 280.376H108.666V282H104.032ZM108.666 282V280.376C108.778 280.376 108.853 280.451 108.89 280.6C108.927 280.74 108.946 280.936 108.946 281.188C108.946 281.431 108.927 281.627 108.89 281.776C108.853 281.925 108.778 282 108.666 282ZM102.324 274.132V272.536H104.2V274.132H102.324ZM104.242 274.132V272.536H106.118V274.132H104.242ZM112.756 282V280.376H114.506V282H112.756ZM114.506 282V280.376C114.618 280.376 114.693 280.451 114.73 280.6C114.767 280.74 114.786 280.936 114.786 281.188C114.786 281.431 114.767 281.627 114.73 281.776C114.693 281.925 114.618 282 114.506 282ZM108.668 282V280.376H111.986L110.894 281.286V274.972H112.756V282H108.668ZM108.668 282C108.556 282 108.481 281.925 108.444 281.776C108.407 281.627 108.388 281.431 108.388 281.188C108.388 280.936 108.407 280.74 108.444 280.6C108.481 280.451 108.556 280.376 108.668 280.376V282ZM109.228 284.912V283.316H111.104V284.912H109.228ZM111.146 284.912V283.316H113.022V284.912H111.146ZM114.506 282V280.376H117.824L116.732 281.286V274.972H118.594V282H114.506ZM114.506 282C114.394 282 114.319 281.925 114.282 281.776C114.245 281.627 114.226 281.431 114.226 281.188C114.226 280.936 114.245 280.74 114.282 280.6C114.319 280.451 114.394 280.376 114.506 280.376V282ZM115.066 274.132V272.536H116.942V274.132H115.066ZM116.984 274.132V272.536H118.86V274.132H116.984ZM126.815 282V280.376H128.285V282H126.815ZM123.035 285.472C122.69 285.472 122.326 285.444 121.943 285.388C121.57 285.341 121.168 285.276 120.739 285.192L121.019 283.694C121.486 283.75 121.882 283.792 122.209 283.82C122.536 283.848 122.811 283.862 123.035 283.862C123.707 283.862 124.192 283.741 124.491 283.498C124.79 283.255 124.939 282.891 124.939 282.406V276.26L125.401 276.596H123.651C123.268 276.596 122.96 276.643 122.727 276.736C122.494 276.82 122.321 277.002 122.209 277.282C122.106 277.553 122.055 277.968 122.055 278.528C122.055 279.06 122.102 279.461 122.195 279.732C122.298 279.993 122.466 280.166 122.699 280.25C122.932 280.334 123.25 280.376 123.651 280.376H124.939V282H123.651C122.858 282 122.204 281.874 121.691 281.622C121.178 281.37 120.795 280.987 120.543 280.474C120.3 279.961 120.179 279.312 120.179 278.528C120.179 277.744 120.3 277.091 120.543 276.568C120.795 276.036 121.178 275.639 121.691 275.378C122.204 275.107 122.858 274.972 123.651 274.972H126.815V282.406C126.815 283.041 126.656 283.587 126.339 284.044C126.031 284.511 125.592 284.865 125.023 285.108C124.463 285.351 123.8 285.472 123.035 285.472ZM128.285 282V280.376C128.397 280.376 128.472 280.451 128.509 280.6C128.546 280.74 128.565 280.936 128.565 281.188C128.565 281.431 128.546 281.627 128.509 281.776C128.472 281.925 128.397 282 128.285 282ZM128.287 282V280.376H138.871L137.289 281.748V278.808C137.289 278.276 137.219 277.851 137.079 277.534C136.939 277.207 136.734 276.969 136.463 276.82C136.202 276.671 135.884 276.596 135.511 276.596C135.11 276.596 134.727 276.675 134.363 276.834C134.008 276.993 133.677 277.198 133.369 277.45C133.061 277.702 132.776 277.973 132.515 278.262C132.254 278.551 132.02 278.831 131.815 279.102C131.61 279.363 131.432 279.587 131.283 279.774L130.863 278.416C131.227 277.977 131.554 277.576 131.843 277.212C132.132 276.848 132.408 276.526 132.669 276.246C132.94 275.966 133.22 275.733 133.509 275.546C133.808 275.359 134.13 275.219 134.475 275.126C134.83 275.023 135.24 274.972 135.707 274.972C136.332 274.972 136.864 275.079 137.303 275.294C137.742 275.499 138.096 275.784 138.367 276.148C138.647 276.512 138.848 276.923 138.969 277.38C139.1 277.837 139.165 278.313 139.165 278.808V282H128.287ZM130.051 280.376V274.972H131.927V280.376H130.051ZM128.287 282C128.175 282 128.1 281.925 128.063 281.776C128.026 281.627 128.007 281.431 128.007 281.188C128.007 280.936 128.026 280.74 128.063 280.6C128.1 280.451 128.175 280.376 128.287 280.376V282ZM147.208 282C146.414 282 145.761 281.874 145.248 281.622C144.734 281.37 144.352 280.987 144.1 280.474C143.857 279.961 143.736 279.312 143.736 278.528C143.736 277.744 143.857 277.091 144.1 276.568C144.352 276.036 144.734 275.639 145.248 275.378C145.761 275.107 146.414 274.972 147.208 274.972H150.372V281.118H148.496V276.19L148.958 276.596H147.208C146.825 276.596 146.517 276.643 146.284 276.736C146.05 276.82 145.878 277.002 145.766 277.282C145.663 277.553 145.612 277.968 145.612 278.528C145.612 279.06 145.658 279.461 145.752 279.732C145.854 279.993 146.022 280.166 146.256 280.25C146.489 280.334 146.806 280.376 147.208 280.376H151.842V282H147.208ZM151.842 282V280.376C151.954 280.376 152.028 280.451 152.066 280.6C152.103 280.74 152.122 280.936 152.122 281.188C152.122 281.431 152.103 281.627 152.066 281.776C152.028 281.925 151.954 282 151.842 282ZM145.5 274.132V272.536H147.376V274.132H145.5ZM147.418 274.132V272.536H149.294V274.132H147.418ZM160.076 282C159.693 282 159.31 281.93 158.928 281.79C158.554 281.641 158.209 281.421 157.892 281.132L159.04 279.942C159.226 280.091 159.399 280.203 159.558 280.278C159.726 280.343 159.898 280.376 160.076 280.376H162.694L161.728 281.258V278.15C161.728 278.001 161.709 277.777 161.672 277.478C161.644 277.17 161.597 276.825 161.532 276.442C161.476 276.05 161.406 275.653 161.322 275.252L163.17 274.972C163.235 275.308 163.296 275.686 163.352 276.106C163.417 276.517 163.473 276.909 163.52 277.282C163.566 277.646 163.59 277.935 163.59 278.15V282H160.076ZM151.844 282V280.376H153.888L153.468 280.81V276.4H155.344V282H151.844ZM155.344 282V280.376H156.478C156.776 280.376 157.005 280.334 157.164 280.25C157.322 280.157 157.43 279.975 157.486 279.704C157.551 279.424 157.584 279.009 157.584 278.458V275.7H159.46V278.458C159.46 279.289 159.352 279.965 159.138 280.488C158.932 281.011 158.61 281.393 158.172 281.636C157.733 281.879 157.168 282 156.478 282H155.344ZM151.844 282C151.732 282 151.657 281.925 151.62 281.776C151.582 281.627 151.564 281.431 151.564 281.188C151.564 280.936 151.582 280.74 151.62 280.6C151.657 280.451 151.732 280.376 151.844 280.376V282ZM157.724 271.542V270.142H159.348V271.542H157.724ZM156.366 273.684V272.088H158.172V273.684H156.366ZM158.914 273.684V272.088H160.72V273.684H158.914ZM165.132 282V280.376H170.214L168.94 281.482V279.13C168.94 278.467 168.87 277.954 168.73 277.59C168.6 277.226 168.376 276.969 168.058 276.82C167.75 276.671 167.326 276.596 166.784 276.596H165.65V274.972H166.784C167.643 274.972 168.371 275.112 168.968 275.392C169.575 275.672 170.032 276.12 170.34 276.736C170.658 277.343 170.816 278.141 170.816 279.13V282H165.132ZM172.05 285.472C171.928 285.472 171.798 285.467 171.658 285.458C171.518 285.449 171.373 285.435 171.224 285.416L171.294 283.82C171.443 283.829 171.583 283.839 171.714 283.848C171.854 283.857 171.956 283.862 172.022 283.862C172.386 283.862 172.675 283.717 172.89 283.428C173.114 283.139 173.226 282.733 173.226 282.21V274.972H175.102V282.21C175.102 282.845 174.971 283.409 174.71 283.904C174.458 284.399 174.103 284.781 173.646 285.052C173.188 285.332 172.656 285.472 172.05 285.472ZM176.603 282V280.376H181.685L180.411 281.482V279.13C180.411 278.467 180.341 277.954 180.201 277.59C180.07 277.226 179.846 276.969 179.529 276.82C179.221 276.671 178.796 276.596 178.255 276.596H177.121V274.972H178.255C179.114 274.972 179.842 275.112 180.439 275.392C181.046 275.672 181.503 276.12 181.811 276.736C182.128 277.343 182.287 278.141 182.287 279.13V282H176.603ZM191.399 282C189.896 282 188.753 281.711 187.969 281.132C187.185 280.544 186.793 279.676 186.793 278.528C186.793 278.304 186.807 278.071 186.835 277.828C186.863 277.576 186.896 277.338 186.933 277.114C186.98 276.881 187.022 276.675 187.059 276.498C187.096 276.321 187.124 276.19 187.143 276.106L188.963 276.456C188.935 276.605 188.898 276.797 188.851 277.03C188.804 277.263 188.762 277.511 188.725 277.772C188.688 278.024 188.669 278.267 188.669 278.5C188.669 278.985 188.772 279.368 188.977 279.648C189.182 279.919 189.495 280.11 189.915 280.222C190.335 280.325 190.862 280.376 191.497 280.376H198.315L197.755 280.866V276.19L198.231 276.596H196.467C196.047 276.596 195.72 276.647 195.487 276.75C195.263 276.853 195.1 277.044 194.997 277.324C194.904 277.595 194.857 277.982 194.857 278.486C194.857 279.037 194.904 279.447 194.997 279.718C195.1 279.979 195.263 280.157 195.487 280.25C195.72 280.334 196.047 280.376 196.467 280.376V281.832C195.664 281.832 195.006 281.72 194.493 281.496C193.989 281.272 193.611 280.917 193.359 280.432C193.116 279.937 192.995 279.289 192.995 278.486C192.995 277.721 193.116 277.077 193.359 276.554C193.611 276.031 193.989 275.639 194.493 275.378C195.006 275.107 195.664 274.972 196.467 274.972H199.631V282H191.399ZM195.725 273.684V272.088H197.601V273.684H195.725ZM203.996 282V280.376H205.802V282H203.996ZM201.28 285.472C201.159 285.472 201.028 285.467 200.888 285.458C200.748 285.449 200.603 285.435 200.454 285.416L200.524 283.82C200.673 283.829 200.813 283.839 200.944 283.848C201.084 283.857 201.187 283.862 201.252 283.862C201.616 283.862 201.905 283.717 202.12 283.428C202.344 283.139 202.456 282.733 202.456 282.21V274.972H204.332V282.21C204.332 282.845 204.201 283.409 203.94 283.904C203.688 284.399 203.333 284.781 202.876 285.052C202.419 285.332 201.887 285.472 201.28 285.472ZM205.802 282V280.376C205.914 280.376 205.989 280.451 206.026 280.6C206.063 280.74 206.082 280.936 206.082 281.188C206.082 281.431 206.063 281.627 206.026 281.776C205.989 281.925 205.914 282 205.802 282ZM208.439 281.776C207.963 281.328 207.603 280.852 207.361 280.348C207.127 279.844 207.011 279.307 207.011 278.738C207.011 278.187 207.113 277.683 207.319 277.226C207.524 276.759 207.804 276.358 208.159 276.022C208.513 275.686 208.924 275.429 209.391 275.252C209.867 275.065 210.366 274.972 210.889 274.972C211.169 274.972 211.463 275 211.771 275.056C212.079 275.112 212.373 275.187 212.653 275.28L212.093 276.806C211.897 276.741 211.701 276.689 211.505 276.652C211.318 276.615 211.136 276.596 210.959 276.596C210.548 276.596 210.184 276.689 209.867 276.876C209.549 277.053 209.302 277.301 209.125 277.618C208.957 277.935 208.873 278.299 208.873 278.71C208.873 279.475 209.171 280.119 209.769 280.642L208.439 281.776ZM205.807 282V280.376H212.779V282H205.807ZM205.807 282C205.695 282 205.62 281.925 205.583 281.776C205.545 281.627 205.527 281.431 205.527 281.188C205.527 280.936 205.545 280.74 205.583 280.6C205.62 280.451 205.695 280.376 205.807 280.376V282ZM209.223 273.684V272.088H211.099V273.684H209.223ZM225.601 282V280.376H227.071V282H225.601ZM217.509 282V280.376H224.621L223.725 281.3V272.102H225.601V282H217.509ZM219.455 280.376V274.062H221.317V280.376H219.455ZM227.071 282V280.376C227.183 280.376 227.258 280.451 227.295 280.6C227.333 280.74 227.351 280.936 227.351 281.188C227.351 281.431 227.333 281.627 227.295 281.776C227.258 281.925 227.183 282 227.071 282ZM229.698 281.776C229.222 281.328 228.863 280.852 228.62 280.348C228.387 279.844 228.27 279.307 228.27 278.738C228.27 278.187 228.373 277.683 228.578 277.226C228.784 276.759 229.064 276.358 229.418 276.022C229.773 275.686 230.184 275.429 230.65 275.252C231.126 275.065 231.626 274.972 232.148 274.972C232.428 274.972 232.722 275 233.03 275.056C233.338 275.112 233.632 275.187 233.912 275.28L233.352 276.806C233.156 276.741 232.96 276.689 232.764 276.652C232.578 276.615 232.396 276.596 232.218 276.596C231.808 276.596 231.444 276.689 231.126 276.876C230.809 277.053 230.562 277.301 230.384 277.618C230.216 277.935 230.132 278.299 230.132 278.71C230.132 279.475 230.431 280.119 231.028 280.642L229.698 281.776ZM227.066 282V280.376H234.038V282H227.066ZM227.066 282C226.954 282 226.88 281.925 226.842 281.776C226.805 281.627 226.786 281.431 226.786 281.188C226.786 280.936 226.805 280.74 226.842 280.6C226.88 280.451 226.954 280.376 227.066 280.376V282ZM230.482 273.684V272.088H232.358V273.684H230.482Z" fill="white"/>
<path d="M65.825 323L67.45 315.975L62 311.25L69.2 310.625L72 304L74.8 310.625L82 311.25L76.55 315.975L78.175 323L72 319.275L65.825 323Z" fill="black"/>
</g>
<defs>
<clipPath id="clip0_84_1743">
<rect width="336" height="308" fill="white"/>
</clipPath>
</defs>
</svg>
